<?xml version="1.0" encoding="UTF-8"?>
<svg xmlns="http://www.w3.org/2000/svg" xmlns:svg="http://www.w3.org/2000/svg" xmlns:rdf="http://www.w3.org/1999/02/22-rdf-syntax-ns#" xmlns:dc="http://purl.org/dc/elements/1.1/" xmlns:cc="http://creativecommons.org/ns#" version="1.1" viewBox="0 0 400 145">
  <defs>
    <style>
      .cls-1 {
        fill: #fff;
      }
    </style>
  </defs>
  <!-- Generator: Adobe Illustrator 28.7.1, SVG Export Plug-In . SVG Version: 1.2.0 Build 142)  -->
  <g>
    <g id="svg2985">
      <g id="g2993">
        <g id="g3423">
          <path id="path3181" class="cls-1" d="M198.3,78.7l-10.5,3.8v6.9h-7v7h7v17.3c0,7.6,1.8,11.9,10,11.9s7.1-.5,8.3-1v-6.2c-1.1,0-2.3.2-3.4.2-3.6,0-4.4-1.2-4.4-5.8v-16.3h7.9v-7h-7.9v-10.7h0ZM62.6,87.8s-3.3,0-4.7.1c-3.2.3-6,2.1-7.6,4.8,0,0,0-1.9-.1-3.2v-.6h-5.2v2.3c.3,1.9.4,4,.4,6,0,.7,0,0,0,27.7h5.1v-21.5c.1-6.8,3.5-10.8,9.2-10.8,0,0,1.9,0,2.5,0h.5c0,0,0-4.9,0-4.9h0ZM77.9,87.9c-11.6,0-16.9,9.8-16.9,19s2.1,11,5.5,14.5c2.9,2.9,6.8,4.6,11.4,4.6s8.4-1.5,11.4-4.4,5.5-8.8,5.5-14.6-2-11.1-5.5-14.5c-2.9-2.9-6.8-4.4-11.4-4.4ZM129.7,87.9c-3.5,0-7.9,1.7-10.4,5.4,0-1-.2-2.4-.4-4v-.4h-7.2v.5c.3,3.8.3,6.1.3,6.1v29.3h7.5v-19.5c0-6.4,1.6-8,2.6-9,2.6-2.6,6.2-2.5,6.2-2.5,2.5,0,4.3.6,5.5,1.8s2.1,3.6,2.1,6.6v22.6h7.5v-24.7c0-3.6-1.1-6.4-3.2-8.5-3.5-3.5-9-3.8-10.5-3.8h0ZM163.2,87.9c-9.1,0-14.9,4-15.3,11v1h9.6l.2-.9c.5-3.2,3.3-4.6,6.1-4.6s3.9.5,4.9,1.4c1.3,1.2,1.5,3.4,1.5,6.3h-5.4c-12,0-18.8,4.9-18.8,13.3s1,5.1,2.9,6.9c2.5,2.3,6.4,3.7,10.8,3.7s8.3-1.5,10.8-4.4c0,.9,0,1.8.1,2.5v.8h8.7v-1c-.3-2.6-.4-5.4-.4-7.1v-16.5c0-3.8-1.2-6.8-3.4-8.8-2.7-2.5-6.7-3.7-12.5-3.7h0ZM272.1,88c-6-.1-10.9,1.8-12.5,7.7,0,0,0-1.1-.7-6.7h-11.8c.3,4.2.2,9.5.2,9.5v26.4h12.3v-14.5c-.2-6.8,2.5-11.1,9.5-11.1.9,0,1.9,0,2.9,0v-11.4h0ZM292.5,88c-5.1,0-9.3.7-12.4,2.1-4.1,1.9-6.1,5-6.1,9.4h10.8c0-2.2,1.7-5.4,5-5.5,1.1-.1,3.5-.1,4.8,1.1,1.4,1.3,1.3,3.6,1.3,5.6,0,.4,0,.7,0,1h0c0,.1-.1.1-.1.1h-4.3c-9,0-19.7,2.1-19.8,12.2,0,3.6.9,6.4,2.9,8.4,2.2,2.2,5.5,3.4,9.8,3.4s8.8-1.9,11.4-5.9l.3-.4v.4s.2,3.6.4,4.8h12.8l-.4-3.2c-.2-2-.4-3-.4-4.1v-18.5c0-2.6-.8-4.8-2.6-6.6-2.8-2.8-7.8-4.4-13.3-4.4ZM26.4,88.1c-4.9,0-9.6,2.5-11.8,6.3l-.5.9v-1l-.4-5.4h-3.7v1.8c.2,2,.3,4.1.3,6.1v41.2h3.6v-20l.6.8c2.8,4.2,7,6.5,12,6.5,9.6,0,13.9-9.4,13.9-18.8s-1.9-11.8-5.1-15-5.4-3.5-9-3.5h0ZM208.6,88.9v23.2c0,.7,0,3.1.7,5.7,1.3,5.4,8.4,8.1,11.9,8.1s7.9-1.5,10.5-4.6l.4,3.2v.4h11.4v-.4c-.3-2.1-.4-4.3-.4-6.3v-29.2h-11.4v21.5c-.1,4.5-2.5,7.7-5.8,7.7s-5.8-2.5-5.9-7.7v-21.5h-11.4ZM25.5,91.4c2.8,0,5.2.9,7,2.7,2.5,2.5,4,6.9,4,11.9s-.4,9.8-4.1,13.6-3.7,2.5-6.2,2.5-6.1-1.1-8.1-3.1c-3.4-3.4-4.1-9.1-4.1-13.2,0-7,3-14.5,11.6-14.5ZM77.9,93.2c2.7,0,5,.9,6.8,2.7,2.9,2.9,4,7.5,4,10.9s-2.2,13.7-10.8,13.7-5-.9-6.9-2.7c-2.9-2.9-4-7.6-4-11s1.1-8,4-10.9,4.1-2.7,6.9-2.7ZM294.7,107.9h1.2c0,3.4-.2,6.7-2.2,8.7-1.4,1.4-3.4,1.8-5.8,1.7-.9,0-2.5-.5-3.4-1.4-.9-.9-1.5-2.1-1.5-3.5,0-2.7,1.6-4.1,3.5-4.9,1.6-.7,6.1-.7,8.2-.7ZM164.3,108.3s4.2,0,6,0c0,4.4-1,7.5-2.9,9.3-1.4,1.3-3.3,2.1-5.8,2.1s-3.7-.6-4.8-1.6c-1-1-1.5-2.3-1.5-3.9,0-4.8,6.3-5.7,9-5.8Z"/>
          <path id="path3217" class="cls-1" d="M327.3,6.9c-10.4.5-20.2,3.8-28.8,9h0c1.1,1.4,2.6,2,4.3,1.8,1.7-.1,3.4-1.6,4.1-3.2,1.3-.2,2.5-.4,3.8-.4.1,0,.1.1.1.2.9,1.7,2.8,2.7,4.8,2.4,1.5-.2,3.1-1.2,3.6-2.7,1.4,0,2.8.2,4.1.5.3,1.2,1.3,2.3,2.5,2.9,1.9.9,4.2.4,5.7-1,1.4.4,2.7.9,4,1.5,0,1.5.8,3,2.2,3.8,1.5.9,3.6.9,5-.1,1.3.8,2.6,1.6,3.9,2.6-.4,1.8.3,3.5,1.8,4.6,1.1.8,2.9.9,4.2.4,1.2,1.2,2.3,2.3,3.3,3.6l-.3.7c-.6,1.4-.4,3.2.5,4.4,1.1,1.4,2.7,1.9,4.4,1.5.9,1.4,1.7,2.8,2.3,4.3-.5.4-.8.8-1.1,1.4-.6,1.3-.5,3.1.3,4.3.9,1.3,2.4,2,3.9,1.9.5,1.4.9,2.9,1.2,4.4v.2c-.5.2-.8.5-1.2.8-1.3,1.1-1.8,2.6-1.4,4.2.3,1.4,1.6,2.7,2.9,3.1.3.1.6,0,.8.1,0,1.7.2,3.3,0,4.9-1.7.1-3.4,1.3-3.9,3-.5,1.5,0,3,.9,4.1.6.7,1.3,1,2,1.3-.3,1.5-.6,2.9-1.1,4.4-1-.2-2.2,0-3.1.4-1.3.7-2.2,2.1-2.3,3.5-.1,1.8.8,3.2,2.2,4.1-.6,1.3-1.2,2.6-2,3.8-.9-.3-1.9-.5-2.9-.3-2.7.4-3.9,3.3-5.2,5.3l-11.6,19.8h-8.6c-1.3-2.3-2.5-4.6-3.7-6.8l-.3-.7,1.8-3-2.7-4.9h0l-12.2,20.8-.3.7c13.5,3.7,29,1.9,40.9-4.2,8-3.8,15.7-10.1,21.3-17.6,6.3-8.4,10.3-17.7,11.8-28.1,2.2-15.6-1.7-30.6-10.2-42.7-2.8-4.1-6.7-8.2-10.5-11.4h0c-8.9-7.3-19.3-11.7-30.7-13.2-3.6-.5-7.1-.6-10.6-.4h0ZM305.8,20.7c-9.7,0-18.4,3.7-24.6,11.7-3.8,5.1-6.1,10-8,16-3.2,9.7-3.7,21.9-1.3,32.1.2.9.3,1.8.7,2.7h22.6c3.8-4.4,8.4-7.8,13.3-10,7.5-3.6,17.8-4.3,26-1.8h0c0,0,5.1-8.7,5.1-8.7v-.2c.1,0,.2,0,.2,0l5.9,10.9h0c1.2-2.6,1.8-5.4,2.1-8.4.7-9.4-1.8-17.9-6.5-25.2-8.3-12.6-21.3-19.2-35.8-19h0ZM349.3,89.4c-.3,0-.7.1-1,.2-1.5.4-3,2-3.2,3.5-.3,2.1.7,4,2.5,5h0c0,0,4.6-7.9,4.6-7.9h0c-.8-.6-1.9-.9-2.9-.9h0Z"/>
        </g>
      </g>
    </g>
  </g>
</svg>