<svg width="17" height="16" viewBox="0 0 17 16" fill="none" xmlns="http://www.w3.org/2000/svg">
<path d="M11.9356 1H4.6952C2.69583 1 1.07501 2.567 1.07501 4.5V11.5C1.07501 13.433 2.69583 15 4.6952 15H11.9356C13.9349 15 15.5558 13.433 15.5558 11.5V4.5C15.5558 2.567 13.9349 1 11.9356 1Z" stroke="white" stroke-linecap="round" stroke-linejoin="round"/>
<path d="M11.2115 7.559C11.3009 8.14157 11.198 8.73655 10.9174 9.25931C10.6368 9.78207 10.1929 10.206 9.64879 10.4708C9.10467 10.7356 8.48803 10.8277 7.8866 10.7341C7.28517 10.6406 6.72957 10.3661 6.29883 9.94961C5.86808 9.53316 5.58413 8.99601 5.48735 8.41455C5.39057 7.83308 5.4859 7.23692 5.75977 6.71086C6.03365 6.18479 6.47212 5.75562 7.01283 5.48437C7.55354 5.21312 8.16895 5.11361 8.77153 5.2C9.38618 5.28812 9.95523 5.56502 10.3946 5.98981C10.834 6.4146 11.1204 6.96475 11.2115 7.559Z" stroke="white" stroke-linecap="round" stroke-linejoin="round"/>
<path d="M12.2976 4.15002H12.3051" stroke="white" stroke-linecap="round" stroke-linejoin="round"/>
</svg>
